<svg width="43" height="43" viewBox="0 0 43 43" fill="none" xmlns="http://www.w3.org/2000/svg">
    <g filter="url(#filter0_d_563_14773)">
        <rect x="2" y="1" width="35" height="35" rx="17.5" fill="#3F4043"/>
    </g>
    <path d="M22.2999 15.726H23.421H25.2112H25.6258C25.914 15.726 26.1596 15.4822 26.1596 15.1922V14.0711V12.2809V11.8663C26.1596 11.5869 25.914 11.32 25.6258 11.3325C25.3357 11.3449 25.0919 11.5673 25.0919 11.8663V12.9874V14.7776V15.1922L25.6258 14.6583H24.5047H22.7145H22.2999C22.0205 14.6583 21.7536 14.9039 21.766 15.1922C21.7785 15.4804 22.0009 15.726 22.2999 15.726Z" fill="white"/>
    <path d="M25.8879 19.2999C25.8879 19.6149 25.9092 19.1309 25.8683 19.4423C25.8754 19.3942 25.8807 19.348 25.8879 19.2999C25.806 19.9032 25.6458 20.494 25.411 21.0563C25.4288 21.0136 25.4465 20.9709 25.4643 20.9282C25.3273 21.2538 25.1654 21.5688 24.9821 21.8695C24.8931 22.0155 24.797 22.1578 24.6974 22.2984C24.6743 22.3304 24.6511 22.3607 24.628 22.3927C24.6138 22.4123 24.5995 22.4301 24.5853 22.4479C24.5283 22.5244 24.6707 22.3393 24.612 22.4141C24.5586 22.4817 24.5052 22.5475 24.45 22.6134C24.2276 22.8785 23.9838 23.1259 23.7258 23.3536C23.6653 23.407 23.603 23.4604 23.5389 23.512C23.5087 23.5369 23.4784 23.5618 23.4482 23.585C23.4304 23.5992 23.4108 23.6135 23.393 23.6277C23.5389 23.512 23.4411 23.5903 23.409 23.6152C23.272 23.7184 23.1314 23.8163 22.9873 23.9088C22.6563 24.1206 22.3093 24.3039 21.948 24.4569L22.0762 24.4036C21.5067 24.6438 20.9106 24.8075 20.2984 24.8911C20.3465 24.884 20.3928 24.8787 20.4408 24.8716C19.818 24.9552 19.1862 24.9552 18.5616 24.8716C18.6097 24.8787 18.656 24.884 18.704 24.8911C18.1008 24.8093 17.51 24.6473 16.9476 24.4124C16.9903 24.4302 17.033 24.448 17.0758 24.4658C16.7501 24.3288 16.4351 24.1669 16.1344 23.9836C15.9885 23.8946 15.8443 23.7985 15.7055 23.6989C15.6735 23.6757 15.6432 23.6526 15.6112 23.6295C15.5916 23.6152 15.5738 23.601 15.556 23.5868C15.4795 23.5298 15.6646 23.6722 15.5899 23.6135C15.5222 23.5601 15.4564 23.5067 15.3906 23.4515C15.1254 23.2291 14.8781 22.9853 14.6503 22.7273C14.5969 22.6668 14.5435 22.6045 14.4919 22.5404C14.467 22.5102 14.4421 22.4799 14.4189 22.4497C14.4047 22.4319 14.3905 22.4123 14.3762 22.3945C14.4919 22.5404 14.4136 22.4425 14.3887 22.4105C14.2855 22.2735 14.1876 22.1329 14.0951 21.9888C13.8833 21.6578 13.7 21.3108 13.547 20.9495L13.6004 21.0776C13.3601 20.5082 13.1964 19.9121 13.1128 19.2999C13.1199 19.348 13.1253 19.3942 13.1324 19.4423C13.0487 18.8194 13.0487 18.1877 13.1324 17.5631C13.1253 17.6112 13.1199 17.6574 13.1128 17.7055C13.1964 17.0934 13.3602 16.4954 13.6004 15.9278L13.547 16.0559C13.6858 15.7302 13.8477 15.417 14.0328 15.1163C14.1236 14.9704 14.2179 14.828 14.3193 14.6892C14.3424 14.6572 14.3656 14.627 14.3887 14.5949C14.4029 14.5771 14.4172 14.5576 14.4314 14.5398C14.3264 14.6821 14.3816 14.6056 14.4047 14.5736C14.4581 14.506 14.5115 14.4401 14.5667 14.3743C14.7909 14.1109 15.0329 13.8636 15.2945 13.6358C15.3567 13.5824 15.419 13.529 15.4813 13.4774C15.5116 13.4525 15.5418 13.4276 15.5721 13.4045C15.6023 13.3795 15.6788 13.3244 15.5382 13.4311C15.5632 13.4134 15.5881 13.3938 15.613 13.3742C15.75 13.271 15.8924 13.1749 16.0365 13.0824C16.3675 12.8724 16.7163 12.6891 17.0775 12.5361C17.0348 12.5539 16.9921 12.5717 16.9494 12.5894C17.5117 12.3545 18.1025 12.1944 18.7058 12.1108C18.6577 12.1179 18.6115 12.1232 18.5634 12.1303C19.188 12.0467 19.8215 12.0467 20.4461 12.1303C20.3981 12.1232 20.3518 12.1179 20.3038 12.1108C20.9105 12.1944 21.5014 12.3563 22.0672 12.5912L21.9391 12.5378C22.222 12.6589 22.4979 12.7959 22.7648 12.9525C22.8929 13.0272 23.0193 13.1073 23.142 13.1909C23.2026 13.2318 23.2613 13.2728 23.32 13.3155C23.3503 13.3386 23.3823 13.36 23.4125 13.3831C23.4268 13.3938 23.4392 13.4045 23.4535 13.4134C23.498 13.4472 23.3378 13.3226 23.4268 13.392C23.6634 13.5771 23.8877 13.7781 24.0994 13.9935C24.2062 14.102 24.3094 14.2141 24.4091 14.3298C24.4553 14.3849 24.5016 14.4401 24.5479 14.4953C24.5692 14.522 24.5906 14.5487 24.6119 14.5754C24.6351 14.6056 24.6778 14.6679 24.5834 14.538C24.5959 14.5558 24.6084 14.5718 24.6226 14.5878C24.829 14.8636 25.0159 15.1537 25.1796 15.4562C25.313 15.7018 25.6725 15.8014 25.9092 15.6484C26.1583 15.4882 26.2437 15.1804 26.1014 14.9188C25.3984 13.6251 24.3005 12.5396 22.9944 11.8581C21.6597 11.1623 20.1134 10.8651 18.6168 11.0573C18.2485 11.1036 17.8837 11.1677 17.526 11.2655C17.1701 11.3634 16.8267 11.4915 16.4886 11.6375C15.8586 11.9079 15.2821 12.2763 14.75 12.7069C13.6876 13.5682 12.8886 14.7338 12.4295 16.0204C11.942 17.3586 11.8761 18.8427 12.1982 20.2271C12.5078 21.5582 13.2036 22.8002 14.1628 23.7719C15.1219 24.7435 16.3533 25.4518 17.679 25.7792C19.0581 26.1209 20.5458 26.0693 21.8928 25.6102C23.1847 25.1689 24.361 24.3823 25.2346 23.3324C26.119 22.2701 26.7223 20.9817 26.9145 19.608C26.9661 19.2414 26.999 19.2999 26.999 18.9411C26.999 18.6617 26.8461 18.4875 26.5578 18.4999C26.2678 18.5124 26.003 18.5225 25.8879 19.2999Z" fill="white"/>
    <g filter="url(#filter1_d_563_14773)">
        <rect x="2" y="1" width="35" height="35" rx="17.5" fill="#3F4043"/>
    </g>
    <path d="M25 17.6852H20.3148V13H18.6852V17.6852H14V19.3148H18.6852V24H20.3148V19.3148H25V17.6852Z" fill="white"/>
    <defs>
        <filter id="filter0_d_563_14773" x="0" y="0" width="43" height="43" filterUnits="userSpaceOnUse" color-interpolation-filters="sRGB">
            <feFlood flood-opacity="0" result="BackgroundImageFix"/>
            <feColorMatrix in="SourceAlpha" type="matrix" values="0 0 0 0 0 0 0 0 0 0 0 0 0 0 0 0 0 0 127 0" result="hardAlpha"/>
            <feOffset dx="2" dy="3"/>
            <feGaussianBlur stdDeviation="2"/>
            <feComposite in2="hardAlpha" operator="out"/>
            <feColorMatrix type="matrix" values="0 0 0 0 0 0 0 0 0 0 0 0 0 0 0 0 0 0 0.25 0"/>
            <feBlend mode="normal" in2="BackgroundImageFix" result="effect1_dropShadow_563_14773"/>
            <feBlend mode="normal" in="SourceGraphic" in2="effect1_dropShadow_563_14773" result="shape"/>
        </filter>
        <filter id="filter1_d_563_14773" x="0" y="0" width="43" height="43" filterUnits="userSpaceOnUse" color-interpolation-filters="sRGB">
            <feFlood flood-opacity="0" result="BackgroundImageFix"/>
            <feColorMatrix in="SourceAlpha" type="matrix" values="0 0 0 0 0 0 0 0 0 0 0 0 0 0 0 0 0 0 127 0" result="hardAlpha"/>
            <feOffset dx="2" dy="3"/>
            <feGaussianBlur stdDeviation="2"/>
            <feComposite in2="hardAlpha" operator="out"/>
            <feColorMatrix type="matrix" values="0 0 0 0 0 0 0 0 0 0 0 0 0 0 0 0 0 0 0.25 0"/>
            <feBlend mode="normal" in2="BackgroundImageFix" result="effect1_dropShadow_563_14773"/>
            <feBlend mode="normal" in="SourceGraphic" in2="effect1_dropShadow_563_14773" result="shape"/>
        </filter>
    </defs>
</svg>
